# xmcd CD database file
#
# Track frame offsets:
#	150
#	45259
#	129583
#	172110
#	212734
#	231924
#
# Disc length: 4625 seconds
#
# Revision: 1
# Processed by: cddbd v1.5.2PL0 Copyright (c) Steve Scherf et al.
# Submitted via: CDex 1.70beta2
#
DISCID=4e120f06
DTITLE=Freddie Hubbard Quintet - At Onkel Pö's Carnegie Hall
DYEAR=1978
DGENRE=Jazz
TTITLE0=Love Connection
TTITLE1=Little Sunflower
TTITLE2=Take It to the Ozone
TTITLE3=Here's That Rainy Day
TTITLE4=Blues for Duane
TTITLE5=One of a Kind
EXTD=YEAR: 1978
EXTT0=
EXTT1=
EXTT2=
EXTT3=
EXTT4=
EXTT5=
PLAYORDER=
